<svg version="1.1" id="Layer_1" xmlns="http://www.w3.org/2000/svg" x="0" y="0" viewBox="0 0 256 256" style="enable-background:new 0 0 256 256" xml:space="preserve"><style>.st0{fill:#3a312a}.st1{fill:#d6df58}.st2{fill:#87796f}.st22{fill:#fae6ca}</style><circle transform="rotate(-73.154 133.395 217.73)" class="st2" cx="133.392" cy="217.732" r="21.759"/><path class="st0" d="M133.392 194.473c-12.825 0-23.259 10.434-23.259 23.259s10.434 23.259 23.259 23.259 23.259-10.434 23.259-23.259-10.435-23.259-23.259-23.259zm0 43.518c-11.171 0-20.259-9.088-20.259-20.259s9.088-20.259 20.259-20.259 20.259 9.088 20.259 20.259-9.088 20.259-20.259 20.259z"/><path class="st22" d="M133.392 208.831a8.9 8.9 0 0 0-8.901 8.901 8.9 8.9 0 0 0 8.901 8.901 8.9 8.9 0 1 0 0-17.802z"/><path class="st0" d="M133.392 207.331c-5.735 0-10.401 4.666-10.401 10.401 0 5.735 4.666 10.401 10.401 10.401 5.735 0 10.401-4.666 10.401-10.401 0-5.735-4.666-10.401-10.401-10.401zm0 17.802c-4.081 0-7.401-3.32-7.401-7.401 0-4.081 3.32-7.401 7.401-7.401s7.401 3.32 7.401 7.401c0 4.081-3.32 7.401-7.401 7.401z"/><circle transform="rotate(-76.714 188.628 217.742)" class="st2" cx="188.608" cy="217.732" r="21.759"/><path class="st0" d="M188.608 194.473c-12.825 0-23.259 10.434-23.259 23.259s10.434 23.259 23.259 23.259 23.259-10.434 23.259-23.259-10.434-23.259-23.259-23.259zm0 43.518c-11.171 0-20.259-9.088-20.259-20.259s9.088-20.259 20.259-20.259 20.259 9.088 20.259 20.259-9.088 20.259-20.259 20.259z"/><path class="st22" d="M188.608 208.831a8.9 8.9 0 0 0-8.901 8.901 8.9 8.9 0 0 0 8.901 8.901 8.9 8.9 0 0 0 8.901-8.901 8.9 8.9 0 0 0-8.901-8.901z"/><path class="st0" d="M188.608 207.331c-5.735 0-10.401 4.666-10.401 10.401 0 5.735 4.666 10.401 10.401 10.401s10.401-4.666 10.401-10.401c.001-5.735-4.665-10.401-10.401-10.401zm0 17.802c-4.081 0-7.401-3.32-7.401-7.401 0-4.081 3.32-7.401 7.401-7.401s7.401 3.32 7.401 7.401c.001 4.081-3.319 7.401-7.401 7.401z"/><path d="M235.986 66.973H77.896l25.01 98.95h105.33a6.744 6.744 0 0 0 6.414-4.661l27.75-85.463c1.414-4.357-1.833-8.826-6.414-8.826z" style="fill:#8ac5dc"/><path class="st0" d="M242.655 68.871a8.161 8.161 0 0 0-6.669-3.398H77.896a1.5 1.5 0 0 0-1.455 1.868l25.01 98.95a1.499 1.499 0 0 0 1.454 1.132h58.657a1.5 1.5 0 1 0 0-3h-57.489l-24.252-95.95h156.164c1.698 0 3.244.788 4.242 2.161a5.191 5.191 0 0 1 .746 4.702l-27.751 85.463a5.23 5.23 0 0 1-4.987 3.624h-31.768a1.5 1.5 0 1 0 0 3h31.768a8.22 8.22 0 0 0 7.84-5.697l27.751-85.463a8.157 8.157 0 0 0-1.171-7.392z"/><path class="st2" d="M219.014 181.471H106.831L66.521 21.984a7.25 7.25 0 0 0-7.03-5.474H20.517a7.251 7.251 0 0 0 0 14.502h33.328l5.531 21.884 3.836 15.176 30.943 122.427a7.25 7.25 0 0 0 7.03 5.474h117.83a7.251 7.251 0 1 0-.001-14.502z"/><path class="st0" d="M219.015 179.971H107.999L67.975 21.616a8.742 8.742 0 0 0-8.484-6.607H20.517c-4.825 0-8.751 3.926-8.751 8.751 0 4.826 3.926 8.751 8.751 8.751h32.16l5.245 20.752a1.5 1.5 0 1 0 2.908-.736l-5.531-21.884a1.499 1.499 0 0 0-1.454-1.132H20.517a5.758 5.758 0 0 1-5.751-5.751 5.758 5.758 0 0 1 5.751-5.751h38.975a5.746 5.746 0 0 1 5.576 4.342l40.31 159.487a1.499 1.499 0 0 0 1.454 1.132h112.183c3.171 0 5.751 2.58 5.751 5.751s-2.58 5.751-5.751 5.751h-117.83a5.745 5.745 0 0 1-5.575-4.342L64.666 67.704a1.499 1.499 0 1 0-2.908.736l30.943 122.426a8.74 8.74 0 0 0 8.484 6.607h117.83c4.825 0 8.751-3.926 8.751-8.751s-3.926-8.751-8.751-8.751z"/><path d="M240.226 70.633c-1-1.37-2.54-2.16-4.24-2.16h-15c1.7 0 3.24.79 4.24 2.16s1.27 3.09.75 4.7l-27.75 85.47a5.245 5.245 0 0 1-4.99 3.62h15c2.28 0 4.28-1.46 4.99-3.62l27.75-85.47c.52-1.61.25-3.33-.75-4.7z" style="fill:#6ca6be"/><path d="M219.016 182.973h-15c3.17 0 5.75 2.58 5.75 5.75s-2.58 5.75-5.75 5.75h15c3.17 0 5.75-2.58 5.75-5.75s-2.58-5.75-5.75-5.75z" style="fill:#6a5c52"/><path class="st1" d="M50.246 93.193c-.974 11.564-13.025 13.39-13.025 13.39 10.347.487 12.925 14.059 12.925 14.059.221-9.677 13.321-14.202 13.321-14.202-9.813-.588-13.221-13.247-13.221-13.247z"/><path class="st0" d="M63.557 104.942c-8.604-.514-11.831-12.024-11.863-12.14a1.5 1.5 0 0 0-2.943.265c-.86 10.215-11.313 11.963-11.754 12.032a1.5 1.5 0 0 0 .154 2.982c9.028.425 11.499 12.719 11.523 12.843a1.5 1.5 0 0 0 2.973-.247c.194-8.509 12.191-12.777 12.313-12.819a1.501 1.501 0 0 0-.403-2.916zm-13.566 10.346c-1.357-3.13-3.709-6.907-7.587-8.877 2.931-1.405 6.409-3.913 8.202-8.273 1.551 3.071 4.2 6.88 8.334 8.722-3.007 1.641-6.922 4.406-8.949 8.428z"/><path class="st1" d="M28.547 110.174c-.689 8.179-9.213 9.471-9.213 9.471 7.318.344 9.142 9.944 9.142 9.944.156-6.844 9.422-10.045 9.422-10.045-6.94-.416-9.351-9.37-9.351-9.37z"/><path class="st0" d="M37.988 118.045c-5.766-.345-7.972-8.185-7.994-8.264a1.499 1.499 0 0 0-2.942.266c-.579 6.871-7.646 8.066-7.942 8.113a1.5 1.5 0 0 0 .153 2.982c6.036.284 7.724 8.644 7.739 8.726a1.5 1.5 0 0 0 2.973-.246c.13-5.709 8.332-8.634 8.413-8.662a1.499 1.499 0 0 0-.4-2.915zm-9.584 6.796c-.924-1.886-2.34-3.947-4.447-5.28 1.856-1.042 3.697-2.63 4.871-4.917 1.057 1.874 2.654 3.955 4.942 5.224-1.851 1.101-3.99 2.741-5.366 4.973z"/><path class="st1" d="M28.547 83.516c-.689 8.179-9.213 9.471-9.213 9.471 7.318.344 9.142 9.944 9.142 9.944.156-6.845 9.422-10.045 9.422-10.045-6.94-.416-9.351-9.37-9.351-9.37z"/><path class="st0" d="M37.989 91.388c-5.767-.345-7.973-8.186-7.994-8.265a1.499 1.499 0 0 0-2.942.266c-.579 6.871-7.646 8.067-7.942 8.114a1.5 1.5 0 0 0 .154 2.982c6.035.284 7.723 8.644 7.739 8.725a1.5 1.5 0 0 0 2.973-.246c.13-5.709 8.332-8.634 8.413-8.662a1.5 1.5 0 0 0-.401-2.914zm-9.585 6.795c-.924-1.885-2.34-3.947-4.447-5.28 1.856-1.041 3.697-2.63 4.871-4.916 1.057 1.873 2.655 3.954 4.942 5.224-1.851 1.1-3.99 2.74-5.366 4.972z"/></svg>